Results
version=1
nRows=14
nColumns=24
inDegrees=yes
endheader
time	pelvis_tilt	pelvis_list	pelvis_rotation	pelvis_tx	pelvis_ty	pelvis_tz	hip_flexion_r	hip_adduction_r	hip_rotation_r	knee_angle_r	ankle_angle_r	subtalar_angle_r	mtp_angle_r	hip_flexion_l	hip_adduction_l	hip_rotation_l	knee_angle_l	ankle_angle_l	subtalar_angle_l	mtp_angle_l	lumbar_extension	lumbar_bending	lumbar_rotation
      1.66066667	     -1.72662278	      9.52654212	     -7.29597776	      1.37235662	      1.00147527	      0.28667062	     16.47249364	    -12.67155490	      3.50961574	    -70.27389860	     -7.57588394	    -12.92261542	      4.34550101	     11.35705355	     14.04166873	      5.71881029	    -12.74339064	      2.69540363	    -18.26493737	     -3.61068659	     -9.19378041	     -6.03488010	      3.45970437
      1.66483333	     -1.73025707	      9.27854697	     -7.10732565	      1.37715445	      1.00250088	      0.28620361	     16.98015865	    -12.34530758	      3.33611095	    -70.01739459	     -6.76051760	    -12.78787391	      4.29055905	     10.79702966	     13.85505538	      6.01286445	    -12.35678569	      2.78457565	    -18.18508824	     -3.59895932	     -9.24583066	     -5.67874565	      3.13274695
      1.66900000	     -1.69991016	      9.04735964	     -6.92312620	      1.38197524	      1.00352153	      0.28574283	     17.44776521	    -12.04601298	      3.16396267	    -69.72314684	     -5.94886280	    -12.66420241	      4.22381688	     10.20213866	     13.68510469	      6.29881582	    -11.96098392	      2.84458988	    -18.11783169	     -3.58510033	     -9.33601531	     -5.33560873	      2.71736871
      1.67316667	     -1.71349829	      8.83240617	     -6.73467729	      1.38673255	      1.00442627	      0.28527716	     17.96855815	    -11.76202026	      2.99186094	    -69.39737278	     -5.14823261	    -12.53199881	      4.14816442	      9.66434660	     13.52088411	      6.57617358	    -11.56817277	      2.89507927	    -18.04591902	     -3.56984506	     -9.37489753	     -5.00888162	      2.31783634
      1.67733333	     -1.70301037	      8.61940307	     -6.53159912	      1.39151064	      1.00531574	      0.28481329	     18.44562135	    -11.48751802	      2.80480190	    -69.02786656	     -4.35121846	    -12.43194590	      4.02362035	      9.10130084	     13.35798991	      6.85195764	    -11.18007345	      2.92901855	    -17.97701183	     -3.54700151	     -9.43980144	     -4.68732890	      1.86688111
      1.68150000	     -1.69020310	      8.39627757	     -6.33717509	      1.39632296	      1.00621493	      0.28436909	     18.90386461	    -11.20286596	      2.61809867	    -68.59198346	     -3.59337569	    -12.31112044	      3.89749596	      8.53071722	     13.17737401	      7.11513374	    -10.78290378	      2.98615431	    -17.88343441	     -3.52620347	     -9.50357065	     -4.36010096	      1.49080156
      1.68566667	     -1.69883142	      8.17764372	     -6.13209806	      1.40107949	      1.00701804	      0.28392202	     19.38136595	    -10.92365165	      2.42630561	    -68.12347050	     -2.89116312	    -12.20518037	      3.77084304	      7.98979226	     12.99403169	      7.37241263	    -10.39079238	      3.04965754	    -17.78171061	     -3.50284767	     -9.54255555	     -4.03289544	      1.09679947
      1.68983333	     -1.70967188	      7.97380666	     -5.93578038	      1.40585205	      1.00776338	      0.28349613	     19.85767628	    -10.65768753	      2.25100402	    -67.61879682	     -2.16449573	    -12.08429435	      3.64867971	      7.46096805	     12.82080301	      7.61544093	    -10.01541120	      3.11844904	    -17.67004900	     -3.47990253	     -9.57870161	     -3.73439116	      0.73889685
      1.69400000	     -1.71272206	      7.75190559	     -5.73489999	      1.41060605	      1.00850269	      0.28308079	     20.31069978	    -10.37114618	      2.07277980	    -67.05895668	     -1.53308844	    -11.98369929	      3.58388983	      6.92326959	     12.62323411	      7.85638850	     -9.63057886	      3.19943377	    -17.54703926	     -3.46276316	     -9.63245371	     -3.42598349	      0.47588279
      1.69816667	     -1.70061285	      7.57384059	     -5.53406273	      1.41539306	      1.00917765	      0.28265682	     20.74814105	    -10.14946636	      1.88630154	    -66.47887170	     -0.87188501	    -11.89255739	      3.47784588	      6.36862243	     12.46959852	      8.07915544	     -9.23516763	      3.25805792	    -17.42294295	     -3.43672981	     -9.66667934	     -3.13319511	      0.03303508
      1.70233333	     -1.71506528	      7.38926114	     -5.33593815	      1.42014366	      1.00978166	      0.28226726	     21.20567509	     -9.90799755	      1.71580894	    -65.85454246	     -0.25712238	    -11.80324288	      3.39501248	      5.84615686	     12.29974628	      8.28931612	     -8.84234018	      3.32643448	    -17.29076198	     -3.41351920	     -9.68982292	     -2.85882564	     -0.28534004
      1.70650000	     -1.70874760	      7.21648425	     -5.13313751	      1.42491117	      1.01036549	      0.28189740	     21.62978092	     -9.68219208	      1.54686379	    -65.19259308	      0.32054080	    -11.77589980	      3.27838176	      5.31118971	     12.13854453	      8.48063325	     -8.46210242	      3.37303493	    -17.13696282	     -3.37956838	     -9.73414859	     -2.60437989	     -0.68787934
      1.71066667	     -1.76452983	      7.03166132	     -4.94358775	      1.42965542	      1.01082629	      0.28156175	     22.11464484	     -9.42582258	      1.40134251	    -64.48708545	      0.86704953	    -11.74798599	      3.23554380	      4.85413384	     11.95416793	      8.65137202	     -8.10622765	      3.44141375	    -17.00162589	     -3.36274838	     -9.71325439	     -2.35835366	     -0.85887563
      1.71483333	     -1.72179655	      6.86715513	     -4.75542186	      1.43444498	      1.01136406	      0.28121246	     22.48267629	     -9.21766031	      1.24268325	    -63.75021973	      1.35812860	    -11.68063409	      3.15521490	      4.27392147	     11.79698358	      8.83836984	     -7.70860981	      3.53426803	    -16.83664277	     -3.33218408	     -9.78967376	     -2.09280920	     -1.28477661
